<svg fill="none" height="24" viewBox="0 0 24 24" width="24" xmlns="http://www.w3.org/2000/svg"><g fill="#000"><path d="m20.9582 15.3253c.204-.4866-.3789-.9001-.8685-.6842-.9752.4285-2.0321.6492-3.1009.6477-4.185 0-7.57725-3.324-7.57725-7.42465 0-1.43523.41559-2.77509 1.13485-3.91048.2833-.44719-.0577-1.068-.57705-.9355-4.01013 1.02288-6.96935 4.59469-6.96935 8.84383 0 5.047 4.17509 9.138 9.3259 9.138 3.8994 0 7.2398-2.345 8.6323-5.6747z"/><path d="m15.6111 3.10252c-.5299-.35334-1.162.27812-.8086.8087l.6302.94515c.2555.38313.3918.83332.3918 1.29381s-.1363.91067-.3918 1.29381l-.6302.94514c-.3534.53.2787 1.16204.8092.80812l.9445-.6297c.3832-.25546.8333-.39178 1.2938-.39178s.9106.13632 1.2938.39178l.9451.6297c.53.35392 1.162-.27812.8081-.8087l-.6297-.94456c-.2555-.38314-.3918-.83332-.3918-1.29381s.1363-.91068.3918-1.29381l.6302-.94515c.3534-.53-.2786-1.16204-.8092-.80812l-.9445.62971c-.3832.25545-.8333.39177-1.2938.39177s-.9106-.13632-1.2938-.39177z"/></g></svg>